<svg xmlns="http://www.w3.org/2000/svg" viewBox="0 0 100 100">
  <circle cx="50" cy="50" r="45" fill="#4A90E2" opacity="0.1"/>
  <path d="M30 30 L70 30 L70 70 L30 70 C25 70 20 65 20 60 L20 40 C20 35 25 30 30 30 Z" 
        fill="#4A90E2" stroke="#2171CD" stroke-width="2"/>
  <path d="M30 30 C25 30 20 35 20 40 L20 60 C20 65 25 70 30 70 L30 30" 
        fill="#FFFFFF" stroke="#2171CD" stroke-width="1"/>
  <line x1="35" y1="40" x2="60" y2="40" stroke="#FFFFFF" stroke-width="2" stroke-linecap="round"/>
  <line x1="35" y1="50" x2="55" y2="50" stroke="#FFFFFF" stroke-width="2" stroke-linecap="round"/>
  <line x1="35" y1="60" x2="50" y2="60" stroke="#FFFFFF" stroke-width="2" stroke-linecap="round"/>
  <path d="M75 45 L85 50 L75 55 Z" fill="#2171CD"/>
</svg>